<svg version="1.1" xmlns="http://www.w3.org/2000/svg" xmlns:xlink="http://www.w3.org/1999/xlink" role="img" width="135" height="90" viewbox="0 0 135 90"><title>DDP</title><desc>Generated by logo.svg, https://github.com/bubkoo/logo.svg</desc><path fill="#2b68a7" d="M-0.34 70.35L0.17 67.66L1 67.66Q3.18 67.66 4.90 66.86Q6.63 66.06 7.27 63.06L13.93 31.70Q14.06 31.25 14.12 30.77Q14.18 30.29 14.18 29.90Q14.18 28.18 12.74 27.76Q11.30 27.34 9.58 27.34L8.74 27.34L9.32 24.66L27.24 24.66Q35.88 24.66 40.65 29.10Q45.42 33.55 45.42 42.06Q45.42 47.76 43.75 52.88Q42.09 58 38.82 61.94Q35.56 65.87 30.79 68.11Q26.02 70.35 19.82 70.35L-0.34 70.35M12.84 67.09L18.41 67.09Q24.68 67.09 29.19 63.79Q33.70 60.50 36.07 54.70Q38.44 48.91 38.44 41.36Q38.44 34.38 35.14 31.12Q31.85 27.86 26.28 27.86L21.22 27.86L12.84 67.09ZM46.06 70.35L46.57 67.66L47.40 67.66Q49.58 67.66 51.30 66.86Q53.03 66.06 53.67 63.06L60.33 31.70Q60.46 31.25 60.52 30.77Q60.58 30.29 60.58 29.90Q60.58 28.18 59.14 27.76Q57.70 27.34 55.98 27.34L55.14 27.34L55.72 24.66L73.64 24.66Q82.28 24.66 87.05 29.10Q91.82 33.55 91.82 42.06Q91.82 47.76 90.15 52.88Q88.49 58 85.22 61.94Q81.96 65.87 77.19 68.11Q72.42 70.35 66.22 70.35L46.06 70.35M59.24 67.09L64.81 67.09Q71.08 67.09 75.59 63.79Q80.10 60.50 82.47 54.70Q84.84 48.91 84.84 41.36Q84.84 34.38 81.54 31.12Q78.25 27.86 72.68 27.86L67.62 27.86L59.24 67.09ZM92.52 70.35L93.10 67.66L93.93 67.66Q96.04 67.66 97.74 66.86Q99.43 66.06 100.07 63.06L106.73 31.70Q106.98 30.67 106.98 29.90Q106.98 28.24 105.70 27.79Q104.42 27.34 102.38 27.34L101.54 27.34L102.12 24.66L118.50 24.66Q125.22 24.66 129.16 27.79Q133.10 30.93 133.10 37.01Q133.10 39.44 132.33 42.13Q131.56 44.82 129.48 47.18Q127.40 49.55 123.53 51.06Q119.66 52.56 113.51 52.56L108.78 52.56L106.47 63.31Q106.22 64.34 106.22 65.10Q106.22 66.77 107.50 67.22Q108.78 67.66 110.82 67.66L112.94 67.66L112.36 70.35L92.52 70.35M109.42 49.55L112.81 49.55Q117.74 49.55 120.71 47.95Q123.69 46.35 125 43.54Q126.31 40.72 126.31 37.07Q126.31 32.02 123.91 29.87Q121.51 27.73 116.97 27.73L114.02 27.73L109.42 49.55Z"></path></svg>